<svg width="64" height="64" viewBox="0 0 64 64" fill="none" xmlns="http://www.w3.org/2000/svg">
  <rect width="64" height="64" rx="18" fill="#F3EFE2"/>
  <path d="M32 16C26.2 11.5 20 9.4 13.5 9.7A4.8 4.8 0 0 0 9 14.5V45.7C9 48.5 11.3 50.7 14.1 50.5C20.3 50.1 26.3 51.9 32 56V16Z" fill="#2B6873"/>
  <path d="M32 16C37.8 11.5 44 9.4 50.5 9.7A4.8 4.8 0 0 1 55 14.5V45.7C55 48.5 52.7 50.7 49.9 50.5C43.7 50.1 37.7 51.9 32 56V16Z" fill="#93AD9F"/>
  <path d="M18 21H25M18 29H26M18 37H25M46 21H39M46 29H38M46 37H39" stroke="#F3EFE2" stroke-width="2.8" stroke-linecap="round"/>
  <path d="M32 16V56" stroke="#CDAE82" stroke-width="3" stroke-linecap="round"/>
</svg>
